HIERARCHY
ROOT Hips
{
	OFFSET 0.000000 0.000000 0.000000
	CHANNELS 6 Xposition Yposition Zposition Xrotation Yrotation Zrotation
	JOINT Thigh.L
	{
		OFFSET 0.054513 0.026394 -0.093627
		CHANNELS 3 Xrotation Yrotation Zrotation
		JOINT Shin.L
		{
			OFFSET 0.059753 0.005796 -0.405128
			CHANNELS 3 Xrotation Yrotation Zrotation
			JOINT Foot.L
			{
				OFFSET -0.041989 0.030616 -0.430180
				CHANNELS 3 Xrotation Yrotation Zrotation
				JOINT Toe.L
				{
					OFFSET 0.047945 -0.125394 -0.063325
					CHANNELS 3 Xrotation Yrotation Zrotation
					End Site
					{
						OFFSET 0.000000 0.050000 0.000000
					}
				}
			}
		}
	}
	JOINT Thigh.R
	{
		OFFSET -0.059577 0.020709 -0.106207
		CHANNELS 3 Xrotation Yrotation Zrotation
		JOINT Shin.R
		{
			OFFSET -0.048841 0.013773 -0.386634
			CHANNELS 3 Xrotation Yrotation Zrotation
			JOINT Foot.R
			{
				OFFSET 0.014128 0.018908 -0.439038
				CHANNELS 3 Xrotation Yrotation Zrotation
				JOINT Toe.R
				{
					OFFSET -0.039477 -0.126274 -0.063258
					CHANNELS 3 Xrotation Yrotation Zrotation
					End Site
					{
						OFFSET 0.000000 0.050000 0.000000
					}
				}
			}
		}
	}
	JOINT Spine
	{
		OFFSET -0.002618 0.027802 0.112407
		CHANNELS 3 Xrotation Yrotation Zrotation
		JOINT Spine.2
		{
			OFFSET 0.008913 0.007026 0.139391
			CHANNELS 3 Xrotation Yrotation Zrotation
			JOINT Chest
			{
				OFFSET -0.010708 -0.022872 0.055817
				CHANNELS 3 Xrotation Yrotation Zrotation
				JOINT Neck
				{
					OFFSET -0.012073 0.025707 0.168862
					CHANNELS 3 Xrotation Yrotation Zrotation
					JOINT Head
					{
						OFFSET 0.025302 -0.021399 0.170050
						CHANNELS 3 Xrotation Yrotation Zrotation
						End Site
						{
							OFFSET 0.000000 0.050000 0.000000
						}
					}
				}
				JOINT Clavicle.L
				{
					OFFSET 0.047025 0.004745 0.086860
					CHANNELS 3 Xrotation Yrotation Zrotation
					JOINT UpperArm.L
					{
						OFFSET 0.125677 0.014014 0.057234
						CHANNELS 3 Xrotation Yrotation Zrotation
						JOINT ForeArm.L
						{
							OFFSET 0.266336 0.042710 -0.074588
							CHANNELS 3 Xrotation Yrotation Zrotation
							JOINT Hand.L
							{
								OFFSET 0.270174 0.000769 0.021991
								CHANNELS 3 Xrotation Yrotation Zrotation
								JOINT Thumb1.L
								{
									OFFSET 0.154604 0.000340 0.009735
									CHANNELS 3 Xrotation Yrotation Zrotation
									JOINT Thumb2.L
									{
										OFFSET 0.029901 0.000085 0.002434
										CHANNELS 3 Xrotation Yrotation Zrotation
										End Site
										{
											OFFSET 0.024917 0.000071 0.002028
										}
									}
								}
								JOINT Index1.L
								{
									OFFSET 0.137604 0.000340 0.009735
									CHANNELS 3 Xrotation Yrotation Zrotation
									JOINT Index2.L
									{
										OFFSET 0.029901 0.000085 0.002434
										CHANNELS 3 Xrotation Yrotation Zrotation
										JOINT Index3.L
										{
											OFFSET 0.021927 0.000062 0.001785
											CHANNELS 3 Xrotation Yrotation Zrotation
											End Site
											{
												OFFSET 0.017941 0.000051 0.001460
											}
										}
									}
								}
								JOINT Middle1.L
								{
									OFFSET 0.119604 0.000340 0.009735
									CHANNELS 3 Xrotation Yrotation Zrotation
									JOINT Middle2.L
									{
										OFFSET 0.030898 0.000088 0.002515
										CHANNELS 3 Xrotation Yrotation Zrotation
										JOINT Middle3.L
										{
											OFFSET 0.021927 0.000062 0.001785
											CHANNELS 3 Xrotation Yrotation Zrotation
											End Site
											{
												OFFSET 0.017941 0.000051 0.001460
											}
										}
									}
								}
								JOINT Ring1.L
								{
									OFFSET 0.101604 0.000340 0.009735
									CHANNELS 3 Xrotation Yrotation Zrotation
									JOINT Ring2.L
									{
										OFFSET 0.028904 0.000082 0.002353
										CHANNELS 3 Xrotation Yrotation Zrotation
										JOINT Ring3.L
										{
											OFFSET 0.019934 0.000057 0.001623
											CHANNELS 3 Xrotation Yrotation Zrotation
											End Site
											{
												OFFSET 0.016944 0.000048 0.001379
											}
										}
									}
								}
								JOINT Pinky1.L
								{
									OFFSET 0.085604 0.000340 0.009735
									CHANNELS 3 Xrotation Yrotation Zrotation
									JOINT Pinky2.L
									{
										OFFSET 0.023921 0.000068 0.001947
										CHANNELS 3 Xrotation Yrotation Zrotation
										JOINT Pinky3.L
										{
											OFFSET 0.016944 0.000048 0.001379
											CHANNELS 3 Xrotation Yrotation Zrotation
											End Site
											{
												OFFSET 0.013954 0.000040 0.001136
											}
										}
									}
								}
							}
						}
					}
				}
				JOINT Clavicle.R
				{
					OFFSET -0.047939 0.010881 0.085955
					CHANNELS 3 Xrotation Yrotation Zrotation
					JOINT UpperArm.R
					{
						OFFSET -0.109001 0.010246 0.053503
						CHANNELS 3 Xrotation Yrotation Zrotation
						JOINT ForeArm.R
						{
							OFFSET -0.284371 0.027673 -0.039200
							CHANNELS 3 Xrotation Yrotation Zrotation
							JOINT Hand.R
							{
								OFFSET -0.266572 0.014179 -0.005525
								CHANNELS 3 Xrotation Yrotation Zrotation
								JOINT Thumb1.R
								{
									OFFSET -0.154805 0.006373 -0.002483
									CHANNELS 3 Xrotation Yrotation Zrotation
									JOINT Thumb2.R
									{
										OFFSET -0.029951 0.001593 -0.000621
										CHANNELS 3 Xrotation Yrotation Zrotation
										End Site
										{
											OFFSET -0.024959 0.001328 -0.000517
										}
									}
								}
								JOINT Index1.R
								{
									OFFSET -0.137805 0.006373 -0.002483
									CHANNELS 3 Xrotation Yrotation Zrotation
									JOINT Index2.R
									{
										OFFSET -0.029951 0.001593 -0.000621
										CHANNELS 3 Xrotation Yrotation Zrotation
										JOINT Index3.R
										{
											OFFSET -0.021964 0.001168 -0.000455
											CHANNELS 3 Xrotation Yrotation Zrotation
											End Site
											{
												OFFSET -0.017971 0.000956 -0.000372
											}
										}
									}
								}
								JOINT Middle1.R
								{
									OFFSET -0.119805 0.006373 -0.002483
									CHANNELS 3 Xrotation Yrotation Zrotation
									JOINT Middle2.R
									{
										OFFSET -0.030950 0.001646 -0.000641
										CHANNELS 3 Xrotation Yrotation Zrotation
										JOINT Middle3.R
										{
											OFFSET -0.021964 0.001168 -0.000455
											CHANNELS 3 Xrotation Yrotation Zrotation
											End Site
											{
												OFFSET -0.017971 0.000956 -0.000372
											}
										}
									}
								}
								JOINT Ring1.R
								{
									OFFSET -0.101805 0.006373 -0.002483
									CHANNELS 3 Xrotation Yrotation Zrotation
									JOINT Ring2.R
									{
										OFFSET -0.028953 0.001540 -0.000600
										CHANNELS 3 Xrotation Yrotation Zrotation
										JOINT Ring3.R
										{
											OFFSET -0.019967 0.001062 -0.000414
											CHANNELS 3 Xrotation Yrotation Zrotation
											End Site
											{
												OFFSET -0.016972 0.000903 -0.000352
											}
										}
									}
								}
								JOINT Pinky1.R
								{
									OFFSET -0.085805 0.006373 -0.002483
									CHANNELS 3 Xrotation Yrotation Zrotation
									JOINT Pinky2.R
									{
										OFFSET -0.023961 0.001275 -0.000497
										CHANNELS 3 Xrotation Yrotation Zrotation
										JOINT Pinky3.R
										{
											OFFSET -0.016972 0.000903 -0.000352
											CHANNELS 3 Xrotation Yrotation Zrotation
											End Site
											{
												OFFSET -0.013977 0.000743 -0.000290
											}
										}
									}
								}
							}
						}
					}
				}
			}
		}
	}
}
MOTION
Frames: 7
Frame Time: 0.04166667
0.009887 -0.058354 1.557738 -7.365482 -1.096662 1.105847 8.903159 -1.947473 4.292878 -1.974684 1.337001 -5.507941 -6.023764 -2.461638 9.561943 -0.430975 -1.668658 -1.022905 4.824716 3.587976 -3.967441 6.819328 0.109550 3.068818 -6.108015 -0.899368 -5.732982 -0.505576 -1.945014 0.867337 6.887263 0.643509 1.950804 0.552301 -0.554137 -2.220579 2.934058 -0.002692 0.118451 8.316535 3.966822 4.026403 2.744540 -0.362021 4.331559 0.965428 23.887798 -3.978026 20.844535 45.295724 -22.489928 6.033485 0.020316 -25.770417 -8.773202 -0.499985 -10.269414 0.000000 0.000000 0.000000 0.000000 0.000000 0.000000 0.000000 0.000000 0.000000 0.000000 0.000000 0.000000 0.000000 0.000000 0.000000 0.000000 0.000000 0.000000 0.000000 0.000000 0.000000 0.000000 0.000000 0.000000 0.000000 0.000000 0.000000 0.000000 0.000000 0.000000 0.000000 0.000000 0.000000 0.000000 0.000000 0.000000 0.000000 0.000000 0.000000 0.000000 0.000000 0.000000 1.850077 -23.730203 9.642776 24.067970 -44.691387 23.750681 1.472541 1.529393 29.902924 -4.119546 -3.220653 8.866756 0.000000 0.000000 0.000000 0.000000 0.000000 0.000000 0.000000 0.000000 0.000000 0.000000 0.000000 0.000000 0.000000 0.000000 0.000000 0.000000 0.000000 0.000000 0.000000 0.000000 0.000000 0.000000 0.000000 0.000000 0.000000 0.000000 0.000000 0.000000 0.000000 0.000000 0.000000 0.000000 0.000000 0.000000 0.000000 0.000000 0.000000 0.000000 0.000000 0.000000 0.000000 0.000000
0.006766 -0.057077 1.557794 -7.329368 -0.975401 1.196058 8.857481 -1.873121 4.195649 -1.846289 1.239133 -5.395169 -6.226067 -2.579067 9.615357 -0.412947 -1.703563 -1.044200 4.807261 3.585647 -3.939513 6.924451 0.136597 3.048663 -6.020106 -1.069499 -5.807510 -0.446539 -1.954076 0.869184 6.911669 0.587061 1.943490 0.669970 -0.548249 -2.198122 2.911668 0.027461 0.101816 8.120013 3.954793 4.119569 2.604573 -0.254919 4.413069 0.907885 23.866093 -3.894806 21.051119 45.537577 -22.847248 6.014267 -0.072646 -25.618908 -8.540720 -0.251765 -10.308423 0.000000 0.000000 0.000000 0.000000 0.000000 0.000000 0.000000 0.000000 0.000000 0.000000 0.000000 0.000000 0.000000 0.000000 0.000000 0.000000 0.000000 0.000000 0.000000 0.000000 0.000000 0.000000 0.000000 0.000000 0.000000 0.000000 0.000000 0.000000 0.000000 0.000000 0.000000 0.000000 0.000000 0.000000 0.000000 0.000000 0.000000 0.000000 0.000000 0.000000 0.000000 0.000000 1.801708 -23.674856 9.503171 24.075177 -44.726476 23.772170 1.437309 1.787912 29.664591 -4.070398 -3.146756 8.843778 0.000000 0.000000 0.000000 0.000000 0.000000 0.000000 0.000000 0.000000 0.000000 0.000000 0.000000 0.000000 0.000000 0.000000 0.000000 0.000000 0.000000 0.000000 0.000000 0.000000 0.000000 0.000000 0.000000 0.000000 0.000000 0.000000 0.000000 0.000000 0.000000 0.000000 0.000000 0.000000 0.000000 0.000000 0.000000 0.000000 0.000000 0.000000 0.000000 0.000000 0.000000 0.000000
0.007067 -0.057518 1.557808 -7.287780 -1.007728 1.224228 8.752689 -1.835411 4.133462 -1.831989 1.220319 -5.356321 -6.154639 -2.589662 9.615593 -0.400250 -1.710880 -1.047540 4.682957 3.605986 -3.854010 6.996556 0.152769 3.096498 -5.989178 -1.049111 -5.880621 -0.425834 -1.964493 0.863144 6.901270 0.595157 1.952203 0.734405 -0.562834 -2.213210 2.878913 0.036202 0.104028 8.022723 3.923886 4.157735 2.604802 -0.254873 4.403111 0.831607 23.859382 -3.893524 21.117301 45.484538 -22.946826 5.901669 0.024860 -25.608579 -8.649734 -0.158043 -10.331227 0.000000 0.000000 0.000000 0.000000 0.000000 0.000000 0.000000 0.000000 0.000000 0.000000 0.000000 0.000000 0.000000 0.000000 0.000000 0.000000 0.000000 0.000000 0.000000 0.000000 0.000000 0.000000 0.000000 0.000000 0.000000 0.000000 0.000000 0.000000 0.000000 0.000000 0.000000 0.000000 0.000000 0.000000 0.000000 0.000000 0.000000 0.000000 0.000000 0.000000 0.000000 0.000000 1.753010 -23.696216 9.470274 24.101632 -44.690640 23.829892 1.309196 1.775706 29.698665 -4.141421 -3.226108 8.805541 0.000000 0.000000 0.000000 0.000000 0.000000 0.000000 0.000000 0.000000 0.000000 0.000000 0.000000 0.000000 0.000000 0.000000 0.000000 0.000000 0.000000 0.000000 0.000000 0.000000 0.000000 0.000000 0.000000 0.000000 0.000000 0.000000 0.000000 0.000000 0.000000 0.000000 0.000000 0.000000 0.000000 0.000000 0.000000 0.000000 0.000000 0.000000 0.000000 0.000000 0.000000 0.000000
0.007377 -0.058186 1.557706 -7.229008 -1.045000 1.265362 8.584155 -1.798644 4.070051 -1.775295 1.213297 -5.293366 -6.112933 -2.620671 9.591351 -0.386693 -1.715231 -1.043899 4.497742 3.641196 -3.780926 7.108147 0.156232 3.121892 -5.986112 -1.022657 -5.940508 -0.406574 -1.969868 0.853461 6.935156 0.610713 1.953457 0.776621 -0.568993 -2.225630 2.853729 0.039976 0.110993 7.966353 3.897024 4.205396 2.644134 -0.264723 4.410946 0.763224 23.836388 -3.925265 21.172077 45.433801 -23.090204 5.787161 0.110150 -25.579467 -8.711023 -0.105896 -10.353439 0.000000 0.000000 0.000000 0.000000 0.000000 0.000000 0.000000 0.000000 0.000000 0.000000 0.000000 0.000000 0.000000 0.000000 0.000000 0.000000 0.000000 0.000000 0.000000 0.000000 0.000000 0.000000 0.000000 0.000000 0.000000 0.000000 0.000000 0.000000 0.000000 0.000000 0.000000 0.000000 0.000000 0.000000 0.000000 0.000000 0.000000 0.000000 0.000000 0.000000 0.000000 0.000000 1.712492 -23.694447 9.460028 24.107260 -44.658615 23.922997 1.184284 1.770589 29.707364 -4.175742 -3.312589 8.784837 0.000000 0.000000 0.000000 0.000000 0.000000 0.000000 0.000000 0.000000 0.000000 0.000000 0.000000 0.000000 0.000000 0.000000 0.000000 0.000000 0.000000 0.000000 0.000000 0.000000 0.000000 0.000000 0.000000 0.000000 0.000000 0.000000 0.000000 0.000000 0.000000 0.000000 0.000000 0.000000 0.000000 0.000000 0.000000 0.000000 0.000000 0.000000 0.000000 0.000000 0.000000 0.000000
0.007491 -0.059184 1.557482 -7.146868 -1.066937 1.286845 8.336158 -1.761592 3.999201 -1.672334 1.195402 -5.191706 -6.102781 -2.681514 9.567768 -0.373941 -1.716812 -1.040254 4.226599 3.674870 -3.720478 7.260564 0.154541 3.104615 -5.996049 -1.009728 -5.956461 -0.396901 -1.972657 0.845484 7.050906 0.637579 1.952848 0.773513 -0.570261 -2.235899 2.865579 0.024835 0.117983 7.903508 3.879689 4.253695 2.650918 -0.289532 4.399131 0.713021 23.805695 -4.032301 21.195631 45.397940 -23.247855 5.649928 0.159270 -25.563316 -8.818508 -0.114491 -10.403024 0.000000 0.000000 0.000000 0.000000 0.000000 0.000000 0.000000 0.000000 0.000000 0.000000 0.000000 0.000000 0.000000 0.000000 0.000000 0.000000 0.000000 0.000000 0.000000 0.000000 0.000000 0.000000 0.000000 0.000000 0.000000 0.000000 0.000000 0.000000 0.000000 0.000000 0.000000 0.000000 0.000000 0.000000 0.000000 0.000000 0.000000 0.000000 0.000000 0.000000 0.000000 0.000000 1.685753 -23.671433 9.523416 24.078503 -44.613973 24.007830 1.065512 1.818140 29.774234 -4.193975 -3.366647 8.805768 0.000000 0.000000 0.000000 0.000000 0.000000 0.000000 0.000000 0.000000 0.000000 0.000000 0.000000 0.000000 0.000000 0.000000 0.000000 0.000000 0.000000 0.000000 0.000000 0.000000 0.000000 0.000000 0.000000 0.000000 0.000000 0.000000 0.000000 0.000000 0.000000 0.000000 0.000000 0.000000 0.000000 0.000000 0.000000 0.000000 0.000000 0.000000 0.000000 0.000000 0.000000 0.000000
0.007231 -0.060852 1.557132 -6.998130 -1.075537 1.304781 7.885648 -1.729026 3.889054 -1.452342 1.201957 -5.046784 -6.120687 -2.781183 9.555996 -0.368269 -1.714525 -1.032697 3.741288 3.723893 -3.564047 7.542551 0.135768 3.071789 -5.992867 -0.993360 -6.014525 -0.407958 -1.976415 0.834353 7.329606 0.681815 1.921646 0.703326 -0.577939 -2.250540 2.918700 -0.002279 0.117408 7.744358 3.855061 4.326465 2.595867 -0.306964 4.392338 0.658854 23.782187 -4.248989 21.214651 45.352025 -23.456528 5.522115 0.120621 -25.599513 -8.861159 -0.131557 -10.437435 0.000000 0.000000 0.000000 0.000000 0.000000 0.000000 0.000000 0.000000 0.000000 0.000000 0.000000 0.000000 0.000000 0.000000 0.000000 0.000000 0.000000 0.000000 0.000000 0.000000 0.000000 0.000000 0.000000 0.000000 0.000000 0.000000 0.000000 0.000000 0.000000 0.000000 0.000000 0.000000 0.000000 0.000000 0.000000 0.000000 0.000000 0.000000 0.000000 0.000000 0.000000 0.000000 1.637858 -23.642209 9.669201 24.012028 -44.503381 24.167680 1.009958 1.982290 29.828036 -4.137349 -3.486450 8.862558 0.000000 0.000000 0.000000 0.000000 0.000000 0.000000 0.000000 0.000000 0.000000 0.000000 0.000000 0.000000 0.000000 0.000000 0.000000 0.000000 0.000000 0.000000 0.000000 0.000000 0.000000 0.000000 0.000000 0.000000 0.000000 0.000000 0.000000 0.000000 0.000000 0.000000 0.000000 0.000000 0.000000 0.000000 0.000000 0.000000 0.000000 0.000000 0.000000 0.000000 0.000000 0.000000
0.007327 -0.062347 1.556715 -6.822016 -1.092049 1.326120 7.365732 -1.726545 3.775865 -1.157023 1.236633 -4.899992 -6.143070 -2.884185 9.525993 -0.353082 -1.708683 -1.021799 3.172015 3.773683 -3.428585 7.922420 0.101485 3.047444 -6.030348 -0.957136 -6.067494 -0.411222 -1.980061 0.815720 7.661289 0.716629 1.886076 0.598010 -0.572305 -2.261471 2.986539 -0.036138 0.113984 7.555959 3.845192 4.406491 2.544668 -0.316122 4.417792 0.607003 23.704613 -4.498513 21.206539 45.316796 -23.673711 5.372277 0.125284 -25.574159 -8.985272 -0.231158 -10.460983 0.000000 0.000000 0.000000 0.000000 0.000000 0.000000 0.000000 0.000000 0.000000 0.000000 0.000000 0.000000 0.000000 0.000000 0.000000 0.000000 0.000000 0.000000 0.000000 0.000000 0.000000 0.000000 0.000000 0.000000 0.000000 0.000000 0.000000 0.000000 0.000000 0.000000 0.000000 0.000000 0.000000 0.000000 0.000000 0.000000 0.000000 0.000000 0.000000 0.000000 0.000000 0.000000 1.607189 -23.593705 9.827180 23.938458 -44.432191 24.346107 0.912155 2.148244 29.930284 -4.107307 -3.537411 8.892453 0.000000 0.000000 0.000000 0.000000 0.000000 0.000000 0.000000 0.000000 0.000000 0.000000 0.000000 0.000000 0.000000 0.000000 0.000000 0.000000 0.000000 0.000000 0.000000 0.000000 0.000000 0.000000 0.000000 0.000000 0.000000 0.000000 0.000000 0.000000 0.000000 0.000000 0.000000 0.000000 0.000000 0.000000 0.000000 0.000000 0.000000 0.000000 0.000000 0.000000 0.000000 0.000000
